<svg preserveAspectRatio="none" width="100%" height="100%" overflow="visible" style="display: block;" viewBox="0 0 33.7984 27.126" fill="none" xmlns="http://www.w3.org/2000/svg">
<path id="Vector" d="M3.3888 4.4599C3.62801 4.36991 3.90709 4.25992 4.236 4.14993C5.8706 3.62997 7.58495 3.36999 9.29929 3.37999C11.0136 3.36999 12.7279 3.62997 14.3625 4.14993C14.6915 4.25992 14.9805 4.35991 15.2098 4.4599V22.8985C13.2961 22.3086 11.3027 22.0186 9.29929 22.0286C6.83742 22.0286 4.82405 22.4486 3.3888 22.8985V4.4599ZM16.8942 1.50012C16.4058 1.28014 15.9074 1.09015 15.3892 0.930165C13.4157 0.300212 11.3525 -0.0097649 9.28931 0.000234357C6.70784 0.000234357 4.6347 0.4602 3.18947 0.930165C2.61138 1.12015 2.05322 1.34014 1.49506 1.59012C1.28575 1.68011 1.08642 1.7901 0.887083 1.90009L0.847207 1.9201H0.827284V1.93009C0.318963 2.24007 0 2.79003 0 3.38998V25.4183C0 26.3583 0.757509 27.1082 1.69441 27.1082C1.99343 27.1082 2.29242 27.0282 2.55157 26.8682L2.61137 26.8382C2.67117 26.8082 2.7808 26.7582 2.92034 26.6882C3.20939 26.5582 3.64794 26.3683 4.22603 26.1783C5.86063 25.6583 7.57498 25.3983 9.28931 25.4183C11.0036 25.4083 12.718 25.6683 14.3526 26.1783C14.8011 26.3183 15.2397 26.4883 15.6583 26.6882C15.7879 26.7482 15.9075 26.8082 16.037 26.8782M16.047 26.8782C16.5752 27.1882 17.2331 27.1882 17.7713 26.8782L17.8311 26.8482C17.8909 26.8182 18.0005 26.7682 18.1401 26.6982C18.5687 26.4983 19.0072 26.3283 19.4458 26.1883C21.0804 25.6683 22.7947 25.4083 24.509 25.4283C26.2234 25.4183 27.9377 25.6783 29.5723 26.1883C30.0208 26.3283 30.4593 26.4983 30.878 26.6982C31.0075 26.7582 31.1271 26.8182 31.2467 26.8882C32.0541 27.3682 33.0906 27.0982 33.5591 26.2883C33.7086 26.0283 33.7984 25.7283 33.7984 25.4283V3.39998C33.7984 2.80003 33.4794 2.25007 32.9711 1.94009L32.9511 1.93009L32.9113 1.9101C32.7119 1.8001 32.5126 1.70011 32.3033 1.60011C31.7551 1.35013 31.187 1.13015 30.6189 0.940167C28.6454 0.310214 26.5821 0.000236494 24.519 0.0102357C21.9475 0.0102357 19.8643 0.470202 18.4191 0.940167C17.9108 1.10015 17.4125 1.29014 16.9141 1.51012M30.4095 4.4599V22.8985C28.4959 22.3086 26.5024 22.0186 24.4991 22.0286C22.0372 22.0286 20.0239 22.4486 18.5886 22.8985V4.4599C18.8278 4.36991 19.1069 4.25992 19.4358 4.14993C21.0704 3.62997 22.7847 3.36999 24.4991 3.37999C26.2134 3.36999 27.9278 3.62997 29.5624 4.14993C29.8913 4.25992 30.1803 4.35991 30.4095 4.4599Z" fill="var(--fill-0, #BCBEC0)"/>
</svg>
