<svg preserveAspectRatio="none" width="100%" height="100%" overflow="visible" style="display: block;" viewBox="0 0 28.598 28.6904" fill="none" xmlns="http://www.w3.org/2000/svg">
<path id="Vector" d="M22.1368 0.442467C21.5488 -0.147489 20.592 -0.147489 20.0039 0.442467L16.5553 3.90221L14.6117 1.95236C14.0237 1.3624 13.0668 1.3624 12.4788 1.95236L3.4486 11.0117C2.87051 11.6116 2.89045 12.5716 3.48847 13.1515C4.07653 13.7215 4.99351 13.7215 5.58156 13.1515L13.5452 5.16212L14.4223 6.04205L10.9737 9.50179L0.438553 20.071C0.159475 20.351 0 20.7409 0 21.1409V27.1805C0 28.0104 0.67777 28.6904 1.50504 28.6904H7.52512C7.92381 28.6904 8.30256 28.5304 8.59161 28.2504L19.1268 17.6812L28.157 8.62186C28.745 8.03191 28.745 7.07197 28.157 6.48202L22.1368 0.442467ZM17.6218 7.11197L21.0704 3.65223L24.9575 7.55194L18.0503 14.4814L14.1632 10.5817L17.6118 7.12198L17.6218 7.11197ZM3.01004 21.7709L12.0402 12.7116L15.9274 16.6113L6.89719 25.6706H3.01004V21.7709Z" fill="var(--fill-0, #BCBEC0)"/>
</svg>
