<?xml version="1.0" encoding="UTF-8"?>
<svg id="Layer_1" data-name="Layer 1" xmlns="http://www.w3.org/2000/svg" viewBox="0 0 1179.44 413.92">
  <defs>
    <style>
      .cls-1 {
        fill: #010101;
      }

      .cls-2 {
        fill: #f36d31;
      }
    </style>
  </defs>
  <path class="cls-1" d="M14.05,393.1h29.7l14.22-40.3h-10.64L0,216.39h24.73l39.17,115.96,36.71-115.96,22.49,7.91-54.81,167.54c-6.03,17.39-13.31,22.08-29.55,22.08H14.05v-20.82Z"/>
  <path class="cls-1" d="M125.28,315.43c0-66.67,95.47-23.23,95.47-65.22,0-14.24-15.48-18.33-28.68-18.33s-32.74,5.43-37.89,28.31h-24.69c6.38-39.19,40.86-47.61,62.77-47.61,24.16,0,51.61,8.6,51.61,38.12v101.85h-22.88v-24.82h-.78c-10.46,22.64-26.73,29.9-47.94,29.9-27.4,0-47-18.02-47-42.19ZM220.51,289.82v-11.48h-.72c-19.74,22.02-70.35,1.71-70.35,36.71,0,13.76,10.97,23.58,27.1,23.58,20.87,0,43.97-14.74,43.97-48.81Z"/>
  <path class="cls-1" d="M259.67,335.04l75.97-97.24h-75.08v-20.91h104.41v18.26l-75.36,96.87h75.62v21.28h-105.56v-18.26Z"/>
  <path class="cls-1" d="M379.53,316.22c0-66.67,95.47-23.23,95.47-65.22,0-14.24-15.46-18.33-28.66-18.33s-32.76,5.43-37.89,28.31h-24.69c6.38-39.19,40.86-47.61,62.77-47.61,24.14,0,51.59,8.6,51.59,38.12v101.85h-22.86v-24.82h-.78c-10.46,22.64-26.73,29.9-47.96,29.9-27.38,0-47-18.02-47-42.19ZM474.79,290.62v-11.48h-.74c-19.74,22.02-70.35,1.71-70.35,36.71,0,13.76,10.99,23.58,27.1,23.58,20.89,0,43.99-14.74,43.99-48.81Z"/>
  <path class="cls-1" d="M517.45,217.68h23.4v23.04h1.93c0-15.16,14.39-23.04,30.79-23.04h15.52v22.43h-14.79c-25.45,0-33.17,17.98-33.17,40.41v73.56h-23.67v-136.41Z"/>
  <path class="cls-1" d="M849.64,354.02v-22.93h-1.78c-8.69,17.22-23.84,27.75-45.1,27.75-36.45,0-58.6-31.2-58.6-73.14s22.86-72.06,58.34-72.06c21.43,0,37.49,10.9,45.98,27.31h1.17v-100.35h24.01v213.42h-24.01ZM848.31,285.71c0-27.38-12.59-51.5-39.8-51.5-25.18,0-39.62,20.65-39.62,51.59s14.44,51.95,39.8,51.95c27.66,0,39.62-24.73,39.62-52.04Z"/>
  <path class="cls-1" d="M883.2,316.63c0-66.67,95.47-23.21,95.47-65.2,0-14.24-15.48-18.35-28.68-18.35s-32.74,5.45-37.89,28.31h-24.69c6.38-39.17,40.86-47.59,62.77-47.59,24.16,0,51.61,8.6,51.61,38.12v101.83h-22.88v-24.8h-.78c-10.46,22.62-26.73,29.88-47.94,29.88-27.4,0-47-18.02-47-42.19ZM978.44,291.03v-11.48h-.72c-19.74,22.04-70.35,1.71-70.35,36.71,0,13.76,10.97,23.58,27.1,23.58,20.87,0,43.97-14.72,43.97-48.81Z"/>
  <path class="cls-1" d="M1014.71,305.32h22.58c5.04,28.98,26.68,32.89,40.19,32.89,19.02,0,32.7-7.84,32.7-21.62,0-7.42-3.84-16.65-27.38-21.62l-19.15-3.74c-20.34-4.04-44.72-13.66-44.68-38.06.04-28.46,28.72-39.23,53.28-39.15,25.81-.09,54.8,9.55,60.1,47.64h-23.45c-4.52-19.78-16-29.11-36.56-29.37-14.63-.2-29.24,6.04-29.48,20.43-.09,7.23,4.73,14.78,26.29,19.39l24.45,5.02c26.01,5.47,39.9,16.81,39.93,38.47-.3,29.27-25.95,41.77-56.43,41.77-24.1,0-57.08-7.56-62.4-52.06Z"/>
  <rect class="cls-1" x="1155.77" y="217.43" width="23.67" height="136.59"/>
  <path class="cls-1" d="M600.53,284.3c0-42.75,24.04-72.06,67.33-72.06s66.74,29.12,66.74,72.25-23.69,73.04-66.74,73.04-67.33-29.83-67.33-73.23ZM711.02,284.49c0-34.19-17.09-51.61-43.08-51.61s-43.64,17.85-43.64,51.7,17.72,52.32,43.83,52.32,42.9-18.24,42.9-52.41Z"/>
  <path class="cls-2" d="M127.63,213.44l-23.13-8.53,25.89-70.22c-20.92-7.26-45.51-17.31-57.23-27.65-6.42-5.67-21.36-21.2-21.42-43.02-.04-16.15,7.91-31.46,23.64-45.5C99.31-2.82,127.2-5.78,156.05,9.96c14.91,8.13,23.6,22,25.13,40.1,1.05,12.44-1.74,22.55-2.06,23.66l-.28.84-16.42,44.54c3.34.99,6.49,1.9,9.39,2.69l.78.21.54.23c.79.29,12.44,4.46,27.4,2.09,10.68-1.7,24.91-11.91,35.3-19.37,1.24-.89,2.45-1.75,3.61-2.58,20.8-14.78,86.83-56.48,116.8-61,5.88-1.2,14.27-.29,19.57,6.14,8.36,10.15,1.94,24.21-.16,28.83h0c-.81,1.86-2.19,4.63-4.58,9.42-2.34,4.69-5.61,11.18-9.7,19.29-4.02,7.96-8.04,15.9-10.75,21.24,10.12-6.72,27.49-17.87,45.62-27.74,35.99-19.6,58.48-25.65,72.4-19.38,3.17.97,8.18,3.35,12.44,9.17,6.07,8.3,8.23,20.5,6.42,36.27.38.81,2.3,3.85,10.35,7.17,9.75,4.01,29.61,8.71,68.89,8.27h.14s258.06,0,258.06,0v24.65h-257.99c-52.77.58-84.84-7.18-98.07-23.72-5.58-6.97-6.69-14.4-5.84-19.4,1.35-12.03-.74-17.38-1.91-18.8l-.71-.1-1.91-1.04c-.6-.19-11.23-3-51.8,19.28-23.85,13.1-46.11,28.32-50.34,31.23-1.12.77-2.29,1.48-3.5,2.11-11.18,5.82-20.07,5.8-26.41-.07-5.31-4.92-6.85-12.42-4.56-22.29,1.13-4.87,2.86-9,3.05-9.45l.35-.75c9.21-18.13,23.82-47.02,27.14-53.89l.1-.22c-25.55,8.2-76.42,38.97-98.83,54.89-1.14.81-2.31,1.65-3.52,2.52-13.08,9.39-29.37,21.08-45.81,23.69-20.19,3.2-35.78-1.82-39.68-3.26-1.86-.51-5.71-1.59-10.84-3.14l-26.24,71.17ZM120.33,24.66c-9.99,0-19.35,4.07-28.52,12.25-10.25,9.14-15.43,18.24-15.41,27.04.03,12.15,10.02,21.9,13.08,24.6,8.1,7.15,28.92,15.82,49.46,22.96l16.57-44.94c.35-1.43,1.77-7.83,1.04-15.07-.94-9.4-4.97-15.91-12.31-19.91-8.47-4.62-16.37-6.94-23.92-6.94ZM458.52,101.65h0,0ZM361.31,65.5h0,0Z"/>
</svg>